ISO-10303-21;
HEADER;
/* Generated by software containing ST-Developer
 * from STEP Tools, Inc. (www.steptools.com) 
 */

FILE_DESCRIPTION(
/* description */ (''),
/* implementation_level */ '2;1');

FILE_NAME(
/* name */ 'Traxxas_v1.0.step',
/* time_stamp */ '2026-01-27T13:21:29-05:00',
/* author */ (''),
/* organization */ (''),
/* preprocessor_version */ 'ST-DEVELOPER v20.1',
/* originating_system */ 'Autodesk Translation Framework v14.24.0.0',
/* authorisation */ '');

FILE_SCHEMA (('AUTOMOTIVE_DESIGN { 1 0 10303 214 3 1 1 }'));
ENDSEC;

DATA;
#10=MECHANICAL_DESIGN_GEOMETRIC_PRESENTATION_REPRESENTATION('',(#13),#893);
#11=SHAPE_REPRESENTATION_RELATIONSHIP('SRR','None',#900,#12);
#12=ADVANCED_BREP_SHAPE_REPRESENTATION('',(#14),#892);
#13=STYLED_ITEM('',(#909),#14);
#14=MANIFOLD_SOLID_BREP('Lidar Plate',#501);
#15=FACE_BOUND('',#88,.T.);
#16=FACE_BOUND('',#89,.T.);
#17=FACE_BOUND('',#94,.T.);
#18=FACE_BOUND('',#95,.T.);
#19=FACE_BOUND('',#96,.T.);
#20=FACE_BOUND('',#97,.T.);
#21=FACE_BOUND('',#98,.T.);
#22=FACE_BOUND('',#99,.T.);
#23=FACE_BOUND('',#100,.T.);
#24=FACE_BOUND('',#101,.T.);
#25=FACE_BOUND('',#102,.T.);
#26=FACE_BOUND('',#104,.T.);
#27=FACE_BOUND('',#105,.T.);
#28=FACE_BOUND('',#106,.T.);
#29=FACE_BOUND('',#107,.T.);
#30=FACE_BOUND('',#108,.T.);
#31=FACE_BOUND('',#109,.T.);
#32=FACE_BOUND('',#110,.T.);
#33=FACE_BOUND('',#111,.T.);
#34=FACE_BOUND('',#112,.T.);
#35=PLANE('',#536);
#36=PLANE('',#540);
#37=PLANE('',#555);
#38=PLANE('',#559);
#39=PLANE('',#562);
#40=PLANE('',#565);
#41=PLANE('',#569);
#42=PLANE('',#570);
#43=B_SPLINE_CURVE_WITH_KNOTS('',3,(#757,#758,#759,#760,#761,#762,#763,
#764,#765,#766,#767,#768,#769,#770,#771,#772,#773,#774),.UNSPECIFIED.,.F.,
 .F.,(4,2,2,2,2,2,2,2,4),(0.226379399433971,0.282973755892787,0.339568112351603,
0.396163455609773,0.452758798867942,0.509354142126112,0.565949485384281,
0.622543841843097,0.679138198301913),.UNSPECIFIED.);
#44=B_SPLINE_CURVE_WITH_KNOTS('',3,(#782,#783,#784,#785,#786,#787,#788,
#789,#790,#791,#792,#793,#794,#795,#796,#797,#798,#799),.UNSPECIFIED.,.F.,
 .F.,(4,2,2,2,2,2,2,2,4),(0.226379399433971,0.282973755892788,0.339568112351604,
0.396163455609773,0.452758798867943,0.509354142126112,0.565949485384282,
0.622543841843098,0.679138198301914),.UNSPECIFIED.);
#45=FACE_OUTER_BOUND('',#69,.T.);
#46=FACE_OUTER_BOUND('',#70,.T.);
#47=FACE_OUTER_BOUND('',#71,.T.);
#48=FACE_OUTER_BOUND('',#72,.T.);
#49=FACE_OUTER_BOUND('',#73,.T.);
#50=FACE_OUTER_BOUND('',#74,.T.);
#51=FACE_OUTER_BOUND('',#75,.T.);
#52=FACE_OUTER_BOUND('',#76,.T.);
#53=FACE_OUTER_BOUND('',#77,.T.);
#54=FACE_OUTER_BOUND('',#78,.T.);
#55=FACE_OUTER_BOUND('',#79,.T.);
#56=FACE_OUTER_BOUND('',#80,.T.);
#57=FACE_OUTER_BOUND('',#81,.T.);
#58=FACE_OUTER_BOUND('',#82,.T.);
#59=FACE_OUTER_BOUND('',#83,.T.);
#60=FACE_OUTER_BOUND('',#84,.T.);
#61=FACE_OUTER_BOUND('',#85,.T.);
#62=FACE_OUTER_BOUND('',#86,.T.);
#63=FACE_OUTER_BOUND('',#87,.T.);
#64=FACE_OUTER_BOUND('',#90,.T.);
#65=FACE_OUTER_BOUND('',#91,.T.);
#66=FACE_OUTER_BOUND('',#92,.T.);
#67=FACE_OUTER_BOUND('',#93,.T.);
#68=FACE_OUTER_BOUND('',#103,.T.);
#69=EDGE_LOOP('',(#325,#326,#327,#328));
#70=EDGE_LOOP('',(#329,#330,#331,#332));
#71=EDGE_LOOP('',(#333,#334,#335,#336));
#72=EDGE_LOOP('',(#337,#338,#339,#340));
#73=EDGE_LOOP('',(#341,#342,#343,#344));
#74=EDGE_LOOP('',(#345,#346,#347,#348,#349));
#75=EDGE_LOOP('',(#350,#351,#352,#353,#354));
#76=EDGE_LOOP('',(#355,#356,#357,#358,#359,#360,#361,#362));
#77=EDGE_LOOP('',(#363,#364,#365,#366,#367,#368,#369,#370));
#78=EDGE_LOOP('',(#371,#372,#373,#374));
#79=EDGE_LOOP('',(#375,#376,#377,#378));
#80=EDGE_LOOP('',(#379,#380,#381,#382));
#81=EDGE_LOOP('',(#383,#384,#385,#386));
#82=EDGE_LOOP('',(#387,#388,#389,#390));
#83=EDGE_LOOP('',(#391,#392,#393,#394));
#84=EDGE_LOOP('',(#395,#396,#397,#398));
#85=EDGE_LOOP('',(#399,#400,#401,#402,#403));
#86=EDGE_LOOP('',(#404,#405,#406,#407,#408));
#87=EDGE_LOOP('',(#409,#410,#411,#412));
#88=EDGE_LOOP('',(#413));
#89=EDGE_LOOP('',(#414));
#90=EDGE_LOOP('',(#415,#416,#417,#418,#419));
#91=EDGE_LOOP('',(#420,#421,#422,#423,#424));
#92=EDGE_LOOP('',(#425,#426,#427,#428));
#93=EDGE_LOOP('',(#429,#430,#431,#432,#433,#434));
#94=EDGE_LOOP('',(#435));
#95=EDGE_LOOP('',(#436));
#96=EDGE_LOOP('',(#437));
#97=EDGE_LOOP('',(#438));
#98=EDGE_LOOP('',(#439));
#99=EDGE_LOOP('',(#440));
#100=EDGE_LOOP('',(#441));
#101=EDGE_LOOP('',(#442));
#102=EDGE_LOOP('',(#443));
#103=EDGE_LOOP('',(#444,#445,#446,#447,#448,#449,#450,#451));
#104=EDGE_LOOP('',(#452));
#105=EDGE_LOOP('',(#453));
#106=EDGE_LOOP('',(#454));
#107=EDGE_LOOP('',(#455));
#108=EDGE_LOOP('',(#456));
#109=EDGE_LOOP('',(#457));
#110=EDGE_LOOP('',(#458));
#111=EDGE_LOOP('',(#459));
#112=EDGE_LOOP('',(#460));
#113=LINE('',#724,#147);
#114=LINE('',#730,#148);
#115=LINE('',#736,#149);
#116=LINE('',#742,#150);
#117=LINE('',#748,#151);
#118=LINE('',#754,#152);
#119=LINE('',#779,#153);
#120=LINE('',#802,#154);
#121=LINE('',#804,#155);
#122=LINE('',#806,#156);
#123=LINE('',#808,#157);
#124=LINE('',#809,#158);
#125=LINE('',#810,#159);
#126=LINE('',#815,#160);
#127=LINE('',#820,#161);
#128=LINE('',#827,#162);
#129=LINE('',#833,#163);
#130=LINE('',#839,#164);
#131=LINE('',#845,#165);
#132=LINE('',#850,#166);
#133=LINE('',#852,#167);
#134=LINE('',#854,#168);
#135=LINE('',#855,#169);
#136=LINE('',#861,#170);
#137=LINE('',#864,#171);
#138=LINE('',#865,#172);
#139=LINE('',#866,#173);
#140=LINE('',#870,#174);
#141=LINE('',#873,#175);
#142=LINE('',#874,#176);
#143=LINE('',#878,#177);
#144=LINE('',#881,#178);
#145=LINE('',#883,#179);
#146=LINE('',#884,#180);
#147=VECTOR('',#577,1.35);
#148=VECTOR('',#584,1.35);
#149=VECTOR('',#591,1.35);
#150=VECTOR('',#598,1.35);
#151=VECTOR('',#605,25.);
#152=VECTOR('',#612,1.5);
#153=VECTOR('',#619,1.5);
#154=VECTOR('',#624,10.);
#155=VECTOR('',#625,10.);
#156=VECTOR('',#626,10.);
#157=VECTOR('',#627,10.);
#158=VECTOR('',#628,10.);
#159=VECTOR('',#629,10.);
#160=VECTOR('',#634,10.);
#161=VECTOR('',#639,10.);
#162=VECTOR('',#648,1.64999999999999);
#163=VECTOR('',#655,1.65);
#164=VECTOR('',#662,1.64999999999999);
#165=VECTOR('',#669,1.65);
#166=VECTOR('',#674,10.);
#167=VECTOR('',#675,10.);
#168=VECTOR('',#676,10.);
#169=VECTOR('',#677,10.);
#170=VECTOR('',#684,10.);
#171=VECTOR('',#687,10.);
#172=VECTOR('',#688,10.);
#173=VECTOR('',#689,10.);
#174=VECTOR('',#694,10.);
#175=VECTOR('',#697,10.);
#176=VECTOR('',#698,10.);
#177=VECTOR('',#703,10.);
#178=VECTOR('',#706,10.);
#179=VECTOR('',#707,10.);
#180=VECTOR('',#708,10.);
#181=CIRCLE('',#516,1.35);
#182=CIRCLE('',#517,1.35);
#183=CIRCLE('',#519,1.35);
#184=CIRCLE('',#520,1.35);
#185=CIRCLE('',#522,1.35);
#186=CIRCLE('',#523,1.35);
#187=CIRCLE('',#525,1.35);
#188=CIRCLE('',#526,1.35);
#189=CIRCLE('',#528,25.);
#190=CIRCLE('',#529,25.);
#191=CIRCLE('',#531,1.5);
#192=CIRCLE('',#532,1.5);
#193=CIRCLE('',#534,1.5);
#194=CIRCLE('',#535,1.5);
#195=CIRCLE('',#538,10.);
#196=CIRCLE('',#539,10.);
#197=CIRCLE('',#541,5.);
#198=CIRCLE('',#542,5.);
#199=CIRCLE('',#544,1.64999999999999);
#200=CIRCLE('',#545,1.64999999999999);
#201=CIRCLE('',#547,1.65);
#202=CIRCLE('',#548,1.65);
#203=CIRCLE('',#550,1.64999999999999);
#204=CIRCLE('',#551,1.64999999999999);
#205=CIRCLE('',#553,1.65);
#206=CIRCLE('',#554,1.65);
#207=CIRCLE('',#557,5.);
#208=CIRCLE('',#558,5.);
#209=CIRCLE('',#561,5.);
#210=CIRCLE('',#564,5.);
#211=CIRCLE('',#567,5.00000000000002);
#212=CIRCLE('',#568,5.00000000000002);
#213=VERTEX_POINT('',#721);
#214=VERTEX_POINT('',#723);
#215=VERTEX_POINT('',#727);
#216=VERTEX_POINT('',#729);
#217=VERTEX_POINT('',#733);
#218=VERTEX_POINT('',#735);
#219=VERTEX_POINT('',#739);
#220=VERTEX_POINT('',#741);
#221=VERTEX_POINT('',#745);
#222=VERTEX_POINT('',#747);
#223=VERTEX_POINT('',#751);
#224=VERTEX_POINT('',#753);
#225=VERTEX_POINT('',#755);
#226=VERTEX_POINT('',#776);
#227=VERTEX_POINT('',#778);
#228=VERTEX_POINT('',#780);
#229=VERTEX_POINT('',#801);
#230=VERTEX_POINT('',#803);
#231=VERTEX_POINT('',#805);
#232=VERTEX_POINT('',#807);
#233=VERTEX_POINT('',#812);
#234=VERTEX_POINT('',#814);
#235=VERTEX_POINT('',#818);
#236=VERTEX_POINT('',#819);
#237=VERTEX_POINT('',#824);
#238=VERTEX_POINT('',#826);
#239=VERTEX_POINT('',#830);
#240=VERTEX_POINT('',#832);
#241=VERTEX_POINT('',#836);
#242=VERTEX_POINT('',#838);
#243=VERTEX_POINT('',#842);
#244=VERTEX_POINT('',#844);
#245=VERTEX_POINT('',#848);
#246=VERTEX_POINT('',#849);
#247=VERTEX_POINT('',#851);
#248=VERTEX_POINT('',#853);
#249=VERTEX_POINT('',#857);
#250=VERTEX_POINT('',#859);
#251=VERTEX_POINT('',#863);
#252=VERTEX_POINT('',#868);
#253=VERTEX_POINT('',#872);
#254=VERTEX_POINT('',#876);
#255=VERTEX_POINT('',#880);
#256=VERTEX_POINT('',#882);
#257=EDGE_CURVE('',#213,#213,#181,.T.);
#258=EDGE_CURVE('',#213,#214,#113,.T.);
#259=EDGE_CURVE('',#214,#214,#182,.T.);
#260=EDGE_CURVE('',#215,#215,#183,.T.);
#261=EDGE_CURVE('',#215,#216,#114,.T.);
#262=EDGE_CURVE('',#216,#216,#184,.T.);
#263=EDGE_CURVE('',#217,#217,#185,.T.);
#264=EDGE_CURVE('',#217,#218,#115,.T.);
#265=EDGE_CURVE('',#218,#218,#186,.T.);
#266=EDGE_CURVE('',#219,#219,#187,.T.);
#267=EDGE_CURVE('',#219,#220,#116,.T.);
#268=EDGE_CURVE('',#220,#220,#188,.T.);
#269=EDGE_CURVE('',#221,#221,#189,.T.);
#270=EDGE_CURVE('',#221,#222,#117,.T.);
#271=EDGE_CURVE('',#222,#222,#190,.T.);
#272=EDGE_CURVE('',#223,#223,#191,.T.);
#273=EDGE_CURVE('',#223,#224,#118,.T.);
#274=EDGE_CURVE('',#225,#224,#192,.T.);
#275=EDGE_CURVE('',#224,#225,#43,.T.);
#276=EDGE_CURVE('',#226,#226,#193,.T.);
#277=EDGE_CURVE('',#226,#227,#119,.T.);
#278=EDGE_CURVE('',#228,#227,#194,.T.);
#279=EDGE_CURVE('',#227,#228,#44,.T.);
#280=EDGE_CURVE('',#229,#224,#120,.T.);
#281=EDGE_CURVE('',#229,#230,#121,.T.);
#282=EDGE_CURVE('',#231,#230,#122,.T.);
#283=EDGE_CURVE('',#232,#231,#123,.T.);
#284=EDGE_CURVE('',#228,#232,#124,.T.);
#285=EDGE_CURVE('',#225,#227,#125,.T.);
#286=EDGE_CURVE('',#232,#233,#195,.T.);
#287=EDGE_CURVE('',#233,#234,#126,.T.);
#288=EDGE_CURVE('',#229,#234,#196,.F.);
#289=EDGE_CURVE('',#235,#236,#127,.T.);
#290=EDGE_CURVE('',#236,#231,#197,.T.);
#291=EDGE_CURVE('',#230,#235,#198,.T.);
#292=EDGE_CURVE('',#237,#237,#199,.T.);
#293=EDGE_CURVE('',#237,#238,#128,.T.);
#294=EDGE_CURVE('',#238,#238,#200,.T.);
#295=EDGE_CURVE('',#239,#239,#201,.T.);
#296=EDGE_CURVE('',#239,#240,#129,.T.);
#297=EDGE_CURVE('',#240,#240,#202,.T.);
#298=EDGE_CURVE('',#241,#241,#203,.T.);
#299=EDGE_CURVE('',#241,#242,#130,.T.);
#300=EDGE_CURVE('',#242,#242,#204,.T.);
#301=EDGE_CURVE('',#243,#243,#205,.T.);
#302=EDGE_CURVE('',#243,#244,#131,.T.);
#303=EDGE_CURVE('',#244,#244,#206,.T.);
#304=EDGE_CURVE('',#245,#246,#132,.T.);
#305=EDGE_CURVE('',#245,#247,#133,.T.);
#306=EDGE_CURVE('',#248,#247,#134,.T.);
#307=EDGE_CURVE('',#246,#248,#135,.T.);
#308=EDGE_CURVE('',#249,#246,#207,.T.);
#309=EDGE_CURVE('',#250,#248,#208,.T.);
#310=EDGE_CURVE('',#249,#250,#136,.T.);
#311=EDGE_CURVE('',#249,#251,#137,.T.);
#312=EDGE_CURVE('',#233,#250,#138,.T.);
#313=EDGE_CURVE('',#251,#232,#139,.T.);
#314=EDGE_CURVE('',#252,#251,#209,.T.);
#315=EDGE_CURVE('',#252,#236,#140,.T.);
#316=EDGE_CURVE('',#252,#253,#141,.T.);
#317=EDGE_CURVE('',#253,#235,#142,.T.);
#318=EDGE_CURVE('',#254,#253,#210,.T.);
#319=EDGE_CURVE('',#254,#229,#143,.T.);
#320=EDGE_CURVE('',#254,#255,#144,.T.);
#321=EDGE_CURVE('',#256,#234,#145,.T.);
#322=EDGE_CURVE('',#255,#256,#146,.T.);
#323=EDGE_CURVE('',#245,#255,#211,.T.);
#324=EDGE_CURVE('',#247,#256,#212,.T.);
#325=ORIENTED_EDGE('',*,*,#257,.F.);
#326=ORIENTED_EDGE('',*,*,#258,.T.);
#327=ORIENTED_EDGE('',*,*,#259,.F.);
#328=ORIENTED_EDGE('',*,*,#258,.F.);
#329=ORIENTED_EDGE('',*,*,#260,.F.);
#330=ORIENTED_EDGE('',*,*,#261,.T.);
#331=ORIENTED_EDGE('',*,*,#262,.F.);
#332=ORIENTED_EDGE('',*,*,#261,.F.);
#333=ORIENTED_EDGE('',*,*,#263,.F.);
#334=ORIENTED_EDGE('',*,*,#264,.T.);
#335=ORIENTED_EDGE('',*,*,#265,.F.);
#336=ORIENTED_EDGE('',*,*,#264,.F.);
#337=ORIENTED_EDGE('',*,*,#266,.F.);
#338=ORIENTED_EDGE('',*,*,#267,.T.);
#339=ORIENTED_EDGE('',*,*,#268,.F.);
#340=ORIENTED_EDGE('',*,*,#267,.F.);
#341=ORIENTED_EDGE('',*,*,#269,.F.);
#342=ORIENTED_EDGE('',*,*,#270,.T.);
#343=ORIENTED_EDGE('',*,*,#271,.F.);
#344=ORIENTED_EDGE('',*,*,#270,.F.);
#345=ORIENTED_EDGE('',*,*,#272,.F.);
#346=ORIENTED_EDGE('',*,*,#273,.T.);
#347=ORIENTED_EDGE('',*,*,#274,.F.);
#348=ORIENTED_EDGE('',*,*,#275,.F.);
#349=ORIENTED_EDGE('',*,*,#273,.F.);
#350=ORIENTED_EDGE('',*,*,#276,.F.);
#351=ORIENTED_EDGE('',*,*,#277,.T.);
#352=ORIENTED_EDGE('',*,*,#278,.F.);
#353=ORIENTED_EDGE('',*,*,#279,.F.);
#354=ORIENTED_EDGE('',*,*,#277,.F.);
#355=ORIENTED_EDGE('',*,*,#274,.T.);
#356=ORIENTED_EDGE('',*,*,#280,.F.);
#357=ORIENTED_EDGE('',*,*,#281,.T.);
#358=ORIENTED_EDGE('',*,*,#282,.F.);
#359=ORIENTED_EDGE('',*,*,#283,.F.);
#360=ORIENTED_EDGE('',*,*,#284,.F.);
#361=ORIENTED_EDGE('',*,*,#278,.T.);
#362=ORIENTED_EDGE('',*,*,#285,.F.);
#363=ORIENTED_EDGE('',*,*,#275,.T.);
#364=ORIENTED_EDGE('',*,*,#285,.T.);
#365=ORIENTED_EDGE('',*,*,#279,.T.);
#366=ORIENTED_EDGE('',*,*,#284,.T.);
#367=ORIENTED_EDGE('',*,*,#286,.T.);
#368=ORIENTED_EDGE('',*,*,#287,.T.);
#369=ORIENTED_EDGE('',*,*,#288,.F.);
#370=ORIENTED_EDGE('',*,*,#280,.T.);
#371=ORIENTED_EDGE('',*,*,#289,.T.);
#372=ORIENTED_EDGE('',*,*,#290,.T.);
#373=ORIENTED_EDGE('',*,*,#282,.T.);
#374=ORIENTED_EDGE('',*,*,#291,.T.);
#375=ORIENTED_EDGE('',*,*,#292,.F.);
#376=ORIENTED_EDGE('',*,*,#293,.T.);
#377=ORIENTED_EDGE('',*,*,#294,.F.);
#378=ORIENTED_EDGE('',*,*,#293,.F.);
#379=ORIENTED_EDGE('',*,*,#295,.F.);
#380=ORIENTED_EDGE('',*,*,#296,.T.);
#381=ORIENTED_EDGE('',*,*,#297,.F.);
#382=ORIENTED_EDGE('',*,*,#296,.F.);
#383=ORIENTED_EDGE('',*,*,#298,.F.);
#384=ORIENTED_EDGE('',*,*,#299,.T.);
#385=ORIENTED_EDGE('',*,*,#300,.F.);
#386=ORIENTED_EDGE('',*,*,#299,.F.);
#387=ORIENTED_EDGE('',*,*,#301,.F.);
#388=ORIENTED_EDGE('',*,*,#302,.T.);
#389=ORIENTED_EDGE('',*,*,#303,.F.);
#390=ORIENTED_EDGE('',*,*,#302,.F.);
#391=ORIENTED_EDGE('',*,*,#304,.F.);
#392=ORIENTED_EDGE('',*,*,#305,.T.);
#393=ORIENTED_EDGE('',*,*,#306,.F.);
#394=ORIENTED_EDGE('',*,*,#307,.F.);
#395=ORIENTED_EDGE('',*,*,#308,.T.);
#396=ORIENTED_EDGE('',*,*,#307,.T.);
#397=ORIENTED_EDGE('',*,*,#309,.F.);
#398=ORIENTED_EDGE('',*,*,#310,.F.);
#399=ORIENTED_EDGE('',*,*,#311,.F.);
#400=ORIENTED_EDGE('',*,*,#310,.T.);
#401=ORIENTED_EDGE('',*,*,#312,.F.);
#402=ORIENTED_EDGE('',*,*,#286,.F.);
#403=ORIENTED_EDGE('',*,*,#313,.F.);
#404=ORIENTED_EDGE('',*,*,#314,.T.);
#405=ORIENTED_EDGE('',*,*,#313,.T.);
#406=ORIENTED_EDGE('',*,*,#283,.T.);
#407=ORIENTED_EDGE('',*,*,#290,.F.);
#408=ORIENTED_EDGE('',*,*,#315,.F.);
#409=ORIENTED_EDGE('',*,*,#316,.F.);
#410=ORIENTED_EDGE('',*,*,#315,.T.);
#411=ORIENTED_EDGE('',*,*,#289,.F.);
#412=ORIENTED_EDGE('',*,*,#317,.F.);
#413=ORIENTED_EDGE('',*,*,#272,.T.);
#414=ORIENTED_EDGE('',*,*,#276,.T.);
#415=ORIENTED_EDGE('',*,*,#318,.T.);
#416=ORIENTED_EDGE('',*,*,#317,.T.);
#417=ORIENTED_EDGE('',*,*,#291,.F.);
#418=ORIENTED_EDGE('',*,*,#281,.F.);
#419=ORIENTED_EDGE('',*,*,#319,.F.);
#420=ORIENTED_EDGE('',*,*,#320,.F.);
#421=ORIENTED_EDGE('',*,*,#319,.T.);
#422=ORIENTED_EDGE('',*,*,#288,.T.);
#423=ORIENTED_EDGE('',*,*,#321,.F.);
#424=ORIENTED_EDGE('',*,*,#322,.F.);
#425=ORIENTED_EDGE('',*,*,#323,.T.);
#426=ORIENTED_EDGE('',*,*,#322,.T.);
#427=ORIENTED_EDGE('',*,*,#324,.F.);
#428=ORIENTED_EDGE('',*,*,#305,.F.);
#429=ORIENTED_EDGE('',*,*,#287,.F.);
#430=ORIENTED_EDGE('',*,*,#312,.T.);
#431=ORIENTED_EDGE('',*,*,#309,.T.);
#432=ORIENTED_EDGE('',*,*,#306,.T.);
#433=ORIENTED_EDGE('',*,*,#324,.T.);
#434=ORIENTED_EDGE('',*,*,#321,.T.);
#435=ORIENTED_EDGE('',*,*,#257,.T.);
#436=ORIENTED_EDGE('',*,*,#260,.T.);
#437=ORIENTED_EDGE('',*,*,#263,.T.);
#438=ORIENTED_EDGE('',*,*,#266,.T.);
#439=ORIENTED_EDGE('',*,*,#269,.T.);
#440=ORIENTED_EDGE('',*,*,#301,.T.);
#441=ORIENTED_EDGE('',*,*,#298,.T.);
#442=ORIENTED_EDGE('',*,*,#295,.T.);
#443=ORIENTED_EDGE('',*,*,#292,.T.);
#444=ORIENTED_EDGE('',*,*,#323,.F.);
#445=ORIENTED_EDGE('',*,*,#304,.T.);
#446=ORIENTED_EDGE('',*,*,#308,.F.);
#447=ORIENTED_EDGE('',*,*,#311,.T.);
#448=ORIENTED_EDGE('',*,*,#314,.F.);
#449=ORIENTED_EDGE('',*,*,#316,.T.);
#450=ORIENTED_EDGE('',*,*,#318,.F.);
#451=ORIENTED_EDGE('',*,*,#320,.T.);
#452=ORIENTED_EDGE('',*,*,#259,.T.);
#453=ORIENTED_EDGE('',*,*,#262,.T.);
#454=ORIENTED_EDGE('',*,*,#265,.T.);
#455=ORIENTED_EDGE('',*,*,#268,.T.);
#456=ORIENTED_EDGE('',*,*,#271,.T.);
#457=ORIENTED_EDGE('',*,*,#303,.T.);
#458=ORIENTED_EDGE('',*,*,#300,.T.);
#459=ORIENTED_EDGE('',*,*,#297,.T.);
#460=ORIENTED_EDGE('',*,*,#294,.T.);
#461=CYLINDRICAL_SURFACE('',#515,1.35);
#462=CYLINDRICAL_SURFACE('',#518,1.35);
#463=CYLINDRICAL_SURFACE('',#521,1.35);
#464=CYLINDRICAL_SURFACE('',#524,1.35);
#465=CYLINDRICAL_SURFACE('',#527,25.);
#466=CYLINDRICAL_SURFACE('',#530,1.5);
#467=CYLINDRICAL_SURFACE('',#533,1.5);
#468=CYLINDRICAL_SURFACE('',#537,10.);
#469=CYLINDRICAL_SURFACE('',#543,1.64999999999999);
#470=CYLINDRICAL_SURFACE('',#546,1.65);
#471=CYLINDRICAL_SURFACE('',#549,1.64999999999999);
#472=CYLINDRICAL_SURFACE('',#552,1.65);
#473=CYLINDRICAL_SURFACE('',#556,5.);
#474=CYLINDRICAL_SURFACE('',#560,5.);
#475=CYLINDRICAL_SURFACE('',#563,5.);
#476=CYLINDRICAL_SURFACE('',#566,5.00000000000002);
#477=ADVANCED_FACE('',(#45),#461,.F.);
#478=ADVANCED_FACE('',(#46),#462,.F.);
#479=ADVANCED_FACE('',(#47),#463,.F.);
#480=ADVANCED_FACE('',(#48),#464,.F.);
#481=ADVANCED_FACE('',(#49),#465,.F.);
#482=ADVANCED_FACE('',(#50),#466,.F.);
#483=ADVANCED_FACE('',(#51),#467,.F.);
#484=ADVANCED_FACE('',(#52),#35,.T.);
#485=ADVANCED_FACE('',(#53),#468,.F.);
#486=ADVANCED_FACE('',(#54),#36,.T.);
#487=ADVANCED_FACE('',(#55),#469,.F.);
#488=ADVANCED_FACE('',(#56),#470,.F.);
#489=ADVANCED_FACE('',(#57),#471,.F.);
#490=ADVANCED_FACE('',(#58),#472,.F.);
#491=ADVANCED_FACE('',(#59),#37,.T.);
#492=ADVANCED_FACE('',(#60),#473,.T.);
#493=ADVANCED_FACE('',(#61),#38,.T.);
#494=ADVANCED_FACE('',(#62),#474,.T.);
#495=ADVANCED_FACE('',(#63,#15,#16),#39,.T.);
#496=ADVANCED_FACE('',(#64),#475,.T.);
#497=ADVANCED_FACE('',(#65),#40,.T.);
#498=ADVANCED_FACE('',(#66),#476,.T.);
#499=ADVANCED_FACE('',(#67,#17,#18,#19,#20,#21,#22,#23,#24,#25),#41,.T.);
#500=ADVANCED_FACE('',(#68,#26,#27,#28,#29,#30,#31,#32,#33,#34),#42,.F.);
#501=CLOSED_SHELL('',(#477,#478,#479,#480,#481,#482,#483,#484,#485,#486,
#487,#488,#489,#490,#491,#492,#493,#494,#495,#496,#497,#498,#499,#500));
#502=DERIVED_UNIT_ELEMENT(#504,1.);
#503=DERIVED_UNIT_ELEMENT(#895,-3.);
#504=(
MASS_UNIT()
NAMED_UNIT(*)
SI_UNIT(.KILO.,.GRAM.)
);
#505=DERIVED_UNIT((#502,#503));
#506=MEASURE_REPRESENTATION_ITEM('density measure',
POSITIVE_RATIO_MEASURE(7850.),#505);
#507=PROPERTY_DEFINITION_REPRESENTATION(#512,#509);
#508=PROPERTY_DEFINITION_REPRESENTATION(#513,#510);
#509=REPRESENTATION('material name',(#511),#892);
#510=REPRESENTATION('density',(#506),#892);
#511=DESCRIPTIVE_REPRESENTATION_ITEM('Steel','Steel');
#512=PROPERTY_DEFINITION('material property','material name',#902);
#513=PROPERTY_DEFINITION('material property','density of part',#902);
#514=AXIS2_PLACEMENT_3D('',#719,#571,#572);
#515=AXIS2_PLACEMENT_3D('',#720,#573,#574);
#516=AXIS2_PLACEMENT_3D('',#722,#575,#576);
#517=AXIS2_PLACEMENT_3D('',#725,#578,#579);
#518=AXIS2_PLACEMENT_3D('',#726,#580,#581);
#519=AXIS2_PLACEMENT_3D('',#728,#582,#583);
#520=AXIS2_PLACEMENT_3D('',#731,#585,#586);
#521=AXIS2_PLACEMENT_3D('',#732,#587,#588);
#522=AXIS2_PLACEMENT_3D('',#734,#589,#590);
#523=AXIS2_PLACEMENT_3D('',#737,#592,#593);
#524=AXIS2_PLACEMENT_3D('',#738,#594,#595);
#525=AXIS2_PLACEMENT_3D('',#740,#596,#597);
#526=AXIS2_PLACEMENT_3D('',#743,#599,#600);
#527=AXIS2_PLACEMENT_3D('',#744,#601,#602);
#528=AXIS2_PLACEMENT_3D('',#746,#603,#604);
#529=AXIS2_PLACEMENT_3D('',#749,#606,#607);
#530=AXIS2_PLACEMENT_3D('',#750,#608,#609);
#531=AXIS2_PLACEMENT_3D('',#752,#610,#611);
#532=AXIS2_PLACEMENT_3D('',#756,#613,#614);
#533=AXIS2_PLACEMENT_3D('',#775,#615,#616);
#534=AXIS2_PLACEMENT_3D('',#777,#617,#618);
#535=AXIS2_PLACEMENT_3D('',#781,#620,#621);
#536=AXIS2_PLACEMENT_3D('',#800,#622,#623);
#537=AXIS2_PLACEMENT_3D('',#811,#630,#631);
#538=AXIS2_PLACEMENT_3D('',#813,#632,#633);
#539=AXIS2_PLACEMENT_3D('',#816,#635,#636);
#540=AXIS2_PLACEMENT_3D('',#817,#637,#638);
#541=AXIS2_PLACEMENT_3D('',#821,#640,#641);
#542=AXIS2_PLACEMENT_3D('',#822,#642,#643);
#543=AXIS2_PLACEMENT_3D('',#823,#644,#645);
#544=AXIS2_PLACEMENT_3D('',#825,#646,#647);
#545=AXIS2_PLACEMENT_3D('',#828,#649,#650);
#546=AXIS2_PLACEMENT_3D('',#829,#651,#652);
#547=AXIS2_PLACEMENT_3D('',#831,#653,#654);
#548=AXIS2_PLACEMENT_3D('',#834,#656,#657);
#549=AXIS2_PLACEMENT_3D('',#835,#658,#659);
#550=AXIS2_PLACEMENT_3D('',#837,#660,#661);
#551=AXIS2_PLACEMENT_3D('',#840,#663,#664);
#552=AXIS2_PLACEMENT_3D('',#841,#665,#666);
#553=AXIS2_PLACEMENT_3D('',#843,#667,#668);
#554=AXIS2_PLACEMENT_3D('',#846,#670,#671);
#555=AXIS2_PLACEMENT_3D('',#847,#672,#673);
#556=AXIS2_PLACEMENT_3D('',#856,#678,#679);
#557=AXIS2_PLACEMENT_3D('',#858,#680,#681);
#558=AXIS2_PLACEMENT_3D('',#860,#682,#683);
#559=AXIS2_PLACEMENT_3D('',#862,#685,#686);
#560=AXIS2_PLACEMENT_3D('',#867,#690,#691);
#561=AXIS2_PLACEMENT_3D('',#869,#692,#693);
#562=AXIS2_PLACEMENT_3D('',#871,#695,#696);
#563=AXIS2_PLACEMENT_3D('',#875,#699,#700);
#564=AXIS2_PLACEMENT_3D('',#877,#701,#702);
#565=AXIS2_PLACEMENT_3D('',#879,#704,#705);
#566=AXIS2_PLACEMENT_3D('',#885,#709,#710);
#567=AXIS2_PLACEMENT_3D('',#886,#711,#712);
#568=AXIS2_PLACEMENT_3D('',#887,#713,#714);
#569=AXIS2_PLACEMENT_3D('',#888,#715,#716);
#570=AXIS2_PLACEMENT_3D('',#889,#717,#718);
#571=DIRECTION('axis',(0.,0.,1.));
#572=DIRECTION('refdir',(1.,0.,0.));
#573=DIRECTION('center_axis',(0.,0.,-1.));
#574=DIRECTION('ref_axis',(-1.,0.,0.));
#575=DIRECTION('center_axis',(0.,0.,-1.));
#576=DIRECTION('ref_axis',(-1.,0.,0.));
#577=DIRECTION('',(0.,0.,-1.));
#578=DIRECTION('center_axis',(0.,0.,1.));
#579=DIRECTION('ref_axis',(-1.,0.,0.));
#580=DIRECTION('center_axis',(0.,0.,-1.));
#581=DIRECTION('ref_axis',(-1.,0.,0.));
#582=DIRECTION('center_axis',(0.,0.,-1.));
#583=DIRECTION('ref_axis',(-1.,0.,0.));
#584=DIRECTION('',(0.,0.,-1.));
#585=DIRECTION('center_axis',(0.,0.,1.));
#586=DIRECTION('ref_axis',(-1.,0.,0.));
#587=DIRECTION('center_axis',(0.,0.,-1.));
#588=DIRECTION('ref_axis',(-1.,0.,0.));
#589=DIRECTION('center_axis',(0.,0.,-1.));
#590=DIRECTION('ref_axis',(-1.,0.,0.));
#591=DIRECTION('',(0.,0.,-1.));
#592=DIRECTION('center_axis',(0.,0.,1.));
#593=DIRECTION('ref_axis',(-1.,0.,0.));
#594=DIRECTION('center_axis',(0.,0.,-1.));
#595=DIRECTION('ref_axis',(-1.,0.,0.));
#596=DIRECTION('center_axis',(0.,0.,-1.));
#597=DIRECTION('ref_axis',(-1.,0.,0.));
#598=DIRECTION('',(0.,0.,-1.));
#599=DIRECTION('center_axis',(0.,0.,1.));
#600=DIRECTION('ref_axis',(-1.,0.,0.));
#601=DIRECTION('center_axis',(0.,0.,-1.));
#602=DIRECTION('ref_axis',(-1.,0.,0.));
#603=DIRECTION('center_axis',(0.,0.,-1.));
#604=DIRECTION('ref_axis',(-1.,0.,0.));
#605=DIRECTION('',(0.,0.,-1.));
#606=DIRECTION('center_axis',(0.,0.,1.));
#607=DIRECTION('ref_axis',(-1.,0.,0.));
#608=DIRECTION('center_axis',(-1.,0.,0.));
#609=DIRECTION('ref_axis',(0.,1.,0.));
#610=DIRECTION('center_axis',(-1.,0.,0.));
#611=DIRECTION('ref_axis',(0.,1.,0.));
#612=DIRECTION('',(-1.,0.,0.));
#613=DIRECTION('center_axis',(1.,0.,0.));
#614=DIRECTION('ref_axis',(0.,1.,0.));
#615=DIRECTION('center_axis',(-1.,0.,0.));
#616=DIRECTION('ref_axis',(0.,1.,0.));
#617=DIRECTION('center_axis',(-1.,0.,0.));
#618=DIRECTION('ref_axis',(0.,1.,0.));
#619=DIRECTION('',(-1.,0.,0.));
#620=DIRECTION('center_axis',(1.,0.,0.));
#621=DIRECTION('ref_axis',(0.,1.,0.));
#622=DIRECTION('center_axis',(-1.,0.,0.));
#623=DIRECTION('ref_axis',(0.,-1.,0.));
#624=DIRECTION('',(0.,1.,0.));
#625=DIRECTION('',(0.,0.,1.));
#626=DIRECTION('',(0.,-1.,0.));
#627=DIRECTION('',(0.,0.,1.));
#628=DIRECTION('',(0.,1.,0.));
#629=DIRECTION('',(0.,1.,0.));
#630=DIRECTION('center_axis',(0.,1.,0.));
#631=DIRECTION('ref_axis',(0.707106781186547,0.,-0.707106781186547));
#632=DIRECTION('center_axis',(-1.36642833800019E-16,1.,0.));
#633=DIRECTION('ref_axis',(0.707106781186547,0.,-0.707106781186547));
#634=DIRECTION('',(0.,-1.,0.));
#635=DIRECTION('center_axis',(0.,-1.,0.));
#636=DIRECTION('ref_axis',(0.707106781186547,0.,-0.707106781186547));
#637=DIRECTION('center_axis',(0.,0.,1.));
#638=DIRECTION('ref_axis',(-1.,0.,0.));
#639=DIRECTION('',(0.,1.,0.));
#640=DIRECTION('center_axis',(0.,0.,1.));
#641=DIRECTION('ref_axis',(1.,-1.77635683940025E-15,0.));
#642=DIRECTION('center_axis',(0.,0.,1.));
#643=DIRECTION('ref_axis',(0.,-1.,0.));
#644=DIRECTION('center_axis',(0.,0.,1.));
#645=DIRECTION('ref_axis',(-1.,0.,0.));
#646=DIRECTION('center_axis',(0.,0.,-1.));
#647=DIRECTION('ref_axis',(-1.,0.,0.));
#648=DIRECTION('',(0.,0.,-1.));
#649=DIRECTION('center_axis',(0.,0.,1.));
#650=DIRECTION('ref_axis',(-1.,0.,0.));
#651=DIRECTION('center_axis',(0.,0.,1.));
#652=DIRECTION('ref_axis',(-1.,0.,0.));
#653=DIRECTION('center_axis',(0.,0.,-1.));
#654=DIRECTION('ref_axis',(-1.,0.,0.));
#655=DIRECTION('',(0.,0.,-1.));
#656=DIRECTION('center_axis',(0.,0.,1.));
#657=DIRECTION('ref_axis',(-1.,0.,0.));
#658=DIRECTION('center_axis',(0.,0.,1.));
#659=DIRECTION('ref_axis',(-1.,0.,0.));
#660=DIRECTION('center_axis',(0.,0.,-1.));
#661=DIRECTION('ref_axis',(-1.,0.,0.));
#662=DIRECTION('',(0.,0.,-1.));
#663=DIRECTION('center_axis',(0.,0.,1.));
#664=DIRECTION('ref_axis',(-1.,0.,0.));
#665=DIRECTION('center_axis',(0.,0.,1.));
#666=DIRECTION('ref_axis',(-1.,0.,0.));
#667=DIRECTION('center_axis',(0.,0.,-1.));
#668=DIRECTION('ref_axis',(-1.,0.,0.));
#669=DIRECTION('',(0.,0.,-1.));
#670=DIRECTION('center_axis',(0.,0.,1.));
#671=DIRECTION('ref_axis',(-1.,0.,0.));
#672=DIRECTION('center_axis',(-1.,2.22044604925031E-16,0.));
#673=DIRECTION('ref_axis',(-2.22044604925031E-16,-1.,0.));
#674=DIRECTION('',(2.22044604925031E-16,1.,0.));
#675=DIRECTION('',(0.,0.,1.));
#676=DIRECTION('',(-2.22044604925031E-16,-1.,0.));
#677=DIRECTION('',(0.,0.,1.));
#678=DIRECTION('center_axis',(0.,0.,1.));
#679=DIRECTION('ref_axis',(-3.5527136788005E-15,1.,0.));
#680=DIRECTION('center_axis',(0.,0.,1.));
#681=DIRECTION('ref_axis',(-3.5527136788005E-15,1.,0.));
#682=DIRECTION('center_axis',(0.,0.,1.));
#683=DIRECTION('ref_axis',(-3.5527136788005E-15,1.,0.));
#684=DIRECTION('',(0.,0.,1.));
#685=DIRECTION('center_axis',(-1.36642833800019E-16,1.,0.));
#686=DIRECTION('ref_axis',(-1.,-1.36642833800019E-16,0.));
#687=DIRECTION('',(1.,1.36642833800019E-16,0.));
#688=DIRECTION('',(-1.,-1.36642833800019E-16,0.));
#689=DIRECTION('',(0.,0.,1.));
#690=DIRECTION('center_axis',(0.,0.,1.));
#691=DIRECTION('ref_axis',(1.,0.,0.));
#692=DIRECTION('center_axis',(0.,0.,1.));
#693=DIRECTION('ref_axis',(1.,0.,0.));
#694=DIRECTION('',(0.,0.,1.));
#695=DIRECTION('center_axis',(1.,0.,0.));
#696=DIRECTION('ref_axis',(0.,1.,0.));
#697=DIRECTION('',(0.,-1.,0.));
#698=DIRECTION('',(0.,0.,1.));
#699=DIRECTION('center_axis',(0.,0.,1.));
#700=DIRECTION('ref_axis',(0.,-1.,0.));
#701=DIRECTION('center_axis',(0.,0.,1.));
#702=DIRECTION('ref_axis',(0.,-1.,0.));
#703=DIRECTION('',(0.,0.,1.));
#704=DIRECTION('center_axis',(0.,-1.,0.));
#705=DIRECTION('ref_axis',(1.,0.,0.));
#706=DIRECTION('',(-1.,0.,0.));
#707=DIRECTION('',(1.,0.,0.));
#708=DIRECTION('',(0.,0.,1.));
#709=DIRECTION('center_axis',(0.,0.,1.));
#710=DIRECTION('ref_axis',(-1.,-1.77635683940024E-15,0.));
#711=DIRECTION('center_axis',(0.,0.,1.));
#712=DIRECTION('ref_axis',(-1.,-1.77635683940024E-15,0.));
#713=DIRECTION('center_axis',(0.,0.,1.));
#714=DIRECTION('ref_axis',(-1.,-1.77635683940024E-15,0.));
#715=DIRECTION('center_axis',(0.,0.,1.));
#716=DIRECTION('ref_axis',(-1.,0.,0.));
#717=DIRECTION('center_axis',(0.,0.,1.));
#718=DIRECTION('ref_axis',(-1.,0.,0.));
#719=CARTESIAN_POINT('',(0.,0.,0.));
#720=CARTESIAN_POINT('Origin',(-69.1837099324223,23.2927004954923,62.5));
#721=CARTESIAN_POINT('',(-67.8337099324223,23.2927004954923,62.5));
#722=CARTESIAN_POINT('Origin',(-69.1837099324223,23.2927004954923,62.5));
#723=CARTESIAN_POINT('',(-67.8337099324223,23.2927004954923,57.5));
#724=CARTESIAN_POINT('',(-67.8337099324223,23.2927004954923,62.5));
#725=CARTESIAN_POINT('Origin',(-69.1837099324223,23.2927004954923,57.5));
#726=CARTESIAN_POINT('Origin',(-116.483709932422,23.2927004954923,62.5));
#727=CARTESIAN_POINT('',(-115.133709932422,23.2927004954923,62.5));
#728=CARTESIAN_POINT('Origin',(-116.483709932422,23.2927004954923,62.5));
#729=CARTESIAN_POINT('',(-115.133709932422,23.2927004954923,57.5));
#730=CARTESIAN_POINT('',(-115.133709932422,23.2927004954923,62.5));
#731=CARTESIAN_POINT('Origin',(-116.483709932422,23.2927004954923,57.5));
#732=CARTESIAN_POINT('Origin',(-116.483709932422,-24.0072995045077,62.5));
#733=CARTESIAN_POINT('',(-115.133709932422,-24.0072995045077,62.5));
#734=CARTESIAN_POINT('Origin',(-116.483709932422,-24.0072995045077,62.5));
#735=CARTESIAN_POINT('',(-115.133709932422,-24.0072995045077,57.5));
#736=CARTESIAN_POINT('',(-115.133709932422,-24.0072995045077,62.5));
#737=CARTESIAN_POINT('Origin',(-116.483709932422,-24.0072995045077,57.5));
#738=CARTESIAN_POINT('Origin',(-69.1837099324223,-24.0072995045077,62.5));
#739=CARTESIAN_POINT('',(-67.8337099324223,-24.0072995045077,62.5));
#740=CARTESIAN_POINT('Origin',(-69.1837099324223,-24.0072995045077,62.5));
#741=CARTESIAN_POINT('',(-67.8337099324223,-24.0072995045077,57.5));
#742=CARTESIAN_POINT('',(-67.8337099324223,-24.0072995045077,62.5));
#743=CARTESIAN_POINT('Origin',(-69.1837099324223,-24.0072995045077,57.5));
#744=CARTESIAN_POINT('Origin',(-92.8337099324223,-0.357299504507673,62.5));
#745=CARTESIAN_POINT('',(-67.8337099324223,-0.357299504507676,62.5));
#746=CARTESIAN_POINT('Origin',(-92.8337099324223,-0.357299504507673,62.5));
#747=CARTESIAN_POINT('',(-67.8337099324223,-0.35729950450767,57.5));
#748=CARTESIAN_POINT('',(-67.8337099324223,-0.357299504507676,62.5));
#749=CARTESIAN_POINT('Origin',(-92.8337099324223,-0.357299504507673,57.5));
#750=CARTESIAN_POINT('Origin',(-50.,-23.3811568969695,72.5000000000001));
#751=CARTESIAN_POINT('',(-50.,-24.8811568969695,72.5000000000001));
#752=CARTESIAN_POINT('Origin',(-50.,-23.3811568969695,72.5000000000001));
#753=CARTESIAN_POINT('',(-55.,-24.8811568969695,72.5));
#754=CARTESIAN_POINT('',(-50.,-24.8811568969695,72.5000000000001));
#755=CARTESIAN_POINT('',(-55.,-21.8811568969695,72.5));
#756=CARTESIAN_POINT('Origin',(-55.,-23.3811568969695,72.5000000000001));
#757=CARTESIAN_POINT('Ctrl Pts',(-55.,-24.8811568969695,72.5000000000001));
#758=CARTESIAN_POINT('Ctrl Pts',(-55.,-24.8811568969695,72.3113521451373));
#759=CARTESIAN_POINT('Ctrl Pts',(-55.0058819840333,-24.8433973574903,72.1103231028293));
#760=CARTESIAN_POINT('Ctrl Pts',(-55.0271411128095,-24.6902277959343,71.7408368957844));
#761=CARTESIAN_POINT('Ctrl Pts',(-55.0422205486356,-24.574833417695,71.5723561771659));
#762=CARTESIAN_POINT('Ctrl Pts',(-55.0705978974097,-24.3087984004832,71.3063211599542));
#763=CARTESIAN_POINT('Ctrl Pts',(-55.0857520715037,-24.1403186826248,71.1909286010109));
#764=CARTESIAN_POINT('Ctrl Pts',(-55.1071826450046,-23.7708358942345,71.0377603634865));
#765=CARTESIAN_POINT('Ctrl Pts',(-55.1131400333574,-23.5698080411634,71.0000000000001));
#766=CARTESIAN_POINT('Ctrl Pts',(-55.1131400333574,-23.1925057527756,71.0000000000001));
#767=CARTESIAN_POINT('Ctrl Pts',(-55.1071826450046,-22.9914778997045,71.0377603634865));
#768=CARTESIAN_POINT('Ctrl Pts',(-55.0857520715037,-22.6219951113142,71.1909286010109));
#769=CARTESIAN_POINT('Ctrl Pts',(-55.0705978974097,-22.4535153934557,71.3063211599542));
#770=CARTESIAN_POINT('Ctrl Pts',(-55.0422205486356,-22.187480376244,71.5723561771659));
#771=CARTESIAN_POINT('Ctrl Pts',(-55.0271411128095,-22.0720859980047,71.7408368957844));
#772=CARTESIAN_POINT('Ctrl Pts',(-55.0058819840333,-21.9189164364486,72.1103231028293));
#773=CARTESIAN_POINT('Ctrl Pts',(-55.,-21.8811568969695,72.3113521451373));
#774=CARTESIAN_POINT('Ctrl Pts',(-55.,-21.8811568969695,72.5000000000001));
#775=CARTESIAN_POINT('Origin',(-50.,23.5195876412315,72.5000000000001));
#776=CARTESIAN_POINT('',(-50.,22.0195876412315,72.5000000000001));
#777=CARTESIAN_POINT('Origin',(-50.,23.5195876412315,72.5000000000001));
#778=CARTESIAN_POINT('',(-55.,22.0195876412315,72.5));
#779=CARTESIAN_POINT('',(-50.,22.0195876412315,72.5000000000001));
#780=CARTESIAN_POINT('',(-55.,25.0195876412315,72.5));
#781=CARTESIAN_POINT('Origin',(-55.,23.5195876412315,72.5000000000001));
#782=CARTESIAN_POINT('Ctrl Pts',(-55.,22.0195876412315,72.5000000000001));
#783=CARTESIAN_POINT('Ctrl Pts',(-55.,22.0195876412315,72.3113521451373));
#784=CARTESIAN_POINT('Ctrl Pts',(-55.0058819840333,22.0573471807106,72.1103231028293));
#785=CARTESIAN_POINT('Ctrl Pts',(-55.0271411128095,22.2105167422667,71.7408368957844));
#786=CARTESIAN_POINT('Ctrl Pts',(-55.0422205486356,22.325911120506,71.5723561771659));
#787=CARTESIAN_POINT('Ctrl Pts',(-55.0705978974097,22.5919461377178,71.3063211599542));
#788=CARTESIAN_POINT('Ctrl Pts',(-55.0857520715037,22.7604258555762,71.1909286010109));
#789=CARTESIAN_POINT('Ctrl Pts',(-55.1071826450046,23.1299086439665,71.0377603634865));
#790=CARTESIAN_POINT('Ctrl Pts',(-55.1131400333574,23.3309364970376,71.0000000000001));
#791=CARTESIAN_POINT('Ctrl Pts',(-55.1131400333574,23.7082387854254,71.0000000000001));
#792=CARTESIAN_POINT('Ctrl Pts',(-55.1071826450046,23.9092666384965,71.0377603634865));
#793=CARTESIAN_POINT('Ctrl Pts',(-55.0857520715037,24.2787494268868,71.1909286010109));
#794=CARTESIAN_POINT('Ctrl Pts',(-55.0705978974097,24.4472291447452,71.3063211599542));
#795=CARTESIAN_POINT('Ctrl Pts',(-55.0422205486356,24.713264161957,71.5723561771659));
#796=CARTESIAN_POINT('Ctrl Pts',(-55.0271411128095,24.8286585401963,71.7408368957844));
#797=CARTESIAN_POINT('Ctrl Pts',(-55.0058819840333,24.9818281017523,72.1103231028293));
#798=CARTESIAN_POINT('Ctrl Pts',(-55.,25.0195876412315,72.3113521451373));
#799=CARTESIAN_POINT('Ctrl Pts',(-55.,25.0195876412315,72.5000000000001));
#800=CARTESIAN_POINT('Origin',(-55.,45.,62.5));
#801=CARTESIAN_POINT('',(-55.,-45.,72.5));
#802=CARTESIAN_POINT('',(-55.,22.5,72.5));
#803=CARTESIAN_POINT('',(-55.,-45.,82.5));
#804=CARTESIAN_POINT('',(-55.,-45.,62.5));
#805=CARTESIAN_POINT('',(-55.,45.,82.5));
#806=CARTESIAN_POINT('',(-55.,-45.,82.5));
#807=CARTESIAN_POINT('',(-55.,45.,72.5));
#808=CARTESIAN_POINT('',(-55.,45.,62.5));
#809=CARTESIAN_POINT('',(-55.,22.5,72.5));
#810=CARTESIAN_POINT('',(-55.,22.5,72.5));
#811=CARTESIAN_POINT('Origin',(-65.,22.5,72.5));
#812=CARTESIAN_POINT('',(-65.,45.,62.5));
#813=CARTESIAN_POINT('Origin',(-65.,45.,72.5));
#814=CARTESIAN_POINT('',(-65.,-45.,62.5));
#815=CARTESIAN_POINT('',(-65.,22.5,62.5));
#816=CARTESIAN_POINT('Origin',(-65.,-45.,72.5));
#817=CARTESIAN_POINT('Origin',(-87.5,-8.88178419700125E-15,82.5));
#818=CARTESIAN_POINT('',(-50.,-40.,82.5));
#819=CARTESIAN_POINT('',(-50.,40.,82.5));
#820=CARTESIAN_POINT('',(-50.,-40.,82.5));
#821=CARTESIAN_POINT('Origin',(-55.,40.,82.5));
#822=CARTESIAN_POINT('Origin',(-55.,-40.,82.5));
#823=CARTESIAN_POINT('Origin',(-110.5000000889,39.5,57.5));
#824=CARTESIAN_POINT('',(-108.8500000889,39.5,62.5));
#825=CARTESIAN_POINT('Origin',(-110.5000000889,39.5,62.5));
#826=CARTESIAN_POINT('',(-108.8500000889,39.5,57.5));
#827=CARTESIAN_POINT('',(-108.8500000889,39.5,57.5));
#828=CARTESIAN_POINT('Origin',(-110.5000000889,39.5,57.5));
#829=CARTESIAN_POINT('Origin',(-68.5000000889,39.5,57.5));
#830=CARTESIAN_POINT('',(-66.8500000889,39.5,62.5));
#831=CARTESIAN_POINT('Origin',(-68.5000000889,39.5,62.5));
#832=CARTESIAN_POINT('',(-66.8500000889,39.5,57.5));
#833=CARTESIAN_POINT('',(-66.8500000889,39.5,57.5));
#834=CARTESIAN_POINT('Origin',(-68.5000000889,39.5,57.5));
#835=CARTESIAN_POINT('Origin',(-110.5000000889,-39.5,57.5));
#836=CARTESIAN_POINT('',(-108.8500000889,-39.5,62.5));
#837=CARTESIAN_POINT('Origin',(-110.5000000889,-39.5,62.5));
#838=CARTESIAN_POINT('',(-108.8500000889,-39.5,57.5));
#839=CARTESIAN_POINT('',(-108.8500000889,-39.5,57.5));
#840=CARTESIAN_POINT('Origin',(-110.5000000889,-39.5,57.5));
#841=CARTESIAN_POINT('Origin',(-68.5000000889,-39.5,57.5));
#842=CARTESIAN_POINT('',(-66.8500000889,-39.5,62.5));
#843=CARTESIAN_POINT('Origin',(-68.5000000889,-39.5,62.5));
#844=CARTESIAN_POINT('',(-66.8500000889,-39.5,57.5));
#845=CARTESIAN_POINT('',(-66.8500000889,-39.5,57.5));
#846=CARTESIAN_POINT('Origin',(-68.5000000889,-39.5,57.5));
#847=CARTESIAN_POINT('Origin',(-125.,40.,57.5));
#848=CARTESIAN_POINT('',(-125.,-40.,57.5));
#849=CARTESIAN_POINT('',(-125.,40.,57.5));
#850=CARTESIAN_POINT('',(-125.,-40.,57.5));
#851=CARTESIAN_POINT('',(-125.,-40.,62.5));
#852=CARTESIAN_POINT('',(-125.,-40.,57.5));
#853=CARTESIAN_POINT('',(-125.,40.,62.5));
#854=CARTESIAN_POINT('',(-125.,-40.,62.5));
#855=CARTESIAN_POINT('',(-125.,40.,57.5));
#856=CARTESIAN_POINT('Origin',(-120.,40.,57.5));
#857=CARTESIAN_POINT('',(-120.,45.,57.5));
#858=CARTESIAN_POINT('Origin',(-120.,40.,57.5));
#859=CARTESIAN_POINT('',(-120.,45.,62.5));
#860=CARTESIAN_POINT('Origin',(-120.,40.,62.5));
#861=CARTESIAN_POINT('',(-120.,45.,57.5));
#862=CARTESIAN_POINT('Origin',(-55.,45.,57.5));
#863=CARTESIAN_POINT('',(-55.,45.,57.5));
#864=CARTESIAN_POINT('',(-120.,45.,57.5));
#865=CARTESIAN_POINT('',(-120.,45.,62.5));
#866=CARTESIAN_POINT('',(-55.,45.,57.5));
#867=CARTESIAN_POINT('Origin',(-55.,40.,57.5));
#868=CARTESIAN_POINT('',(-50.,40.,57.5));
#869=CARTESIAN_POINT('Origin',(-55.,40.,57.5));
#870=CARTESIAN_POINT('',(-50.,40.,57.5));
#871=CARTESIAN_POINT('Origin',(-50.,-40.,57.5));
#872=CARTESIAN_POINT('',(-50.,-40.,57.5));
#873=CARTESIAN_POINT('',(-50.,40.,57.5));
#874=CARTESIAN_POINT('',(-50.,-40.,57.5));
#875=CARTESIAN_POINT('Origin',(-55.,-40.,57.5));
#876=CARTESIAN_POINT('',(-55.,-45.,57.5));
#877=CARTESIAN_POINT('Origin',(-55.,-40.,57.5));
#878=CARTESIAN_POINT('',(-55.,-45.,57.5));
#879=CARTESIAN_POINT('Origin',(-120.,-45.,57.5));
#880=CARTESIAN_POINT('',(-120.,-45.,57.5));
#881=CARTESIAN_POINT('',(-55.,-45.,57.5));
#882=CARTESIAN_POINT('',(-120.,-45.,62.5));
#883=CARTESIAN_POINT('',(-55.,-45.,62.5));
#884=CARTESIAN_POINT('',(-120.,-45.,57.5));
#885=CARTESIAN_POINT('Origin',(-120.,-40.,57.5));
#886=CARTESIAN_POINT('Origin',(-120.,-40.,57.5));
#887=CARTESIAN_POINT('Origin',(-120.,-40.,62.5));
#888=CARTESIAN_POINT('Origin',(-89.2507441174652,0.,62.5));
#889=CARTESIAN_POINT('Origin',(-89.2507441174652,0.,57.5));
#890=UNCERTAINTY_MEASURE_WITH_UNIT(LENGTH_MEASURE(0.01),#894,
'DISTANCE_ACCURACY_VALUE',
'Maximum model space distance between geometric entities at asserted c
onnectivities');
#891=UNCERTAINTY_MEASURE_WITH_UNIT(LENGTH_MEASURE(0.01),#894,
'DISTANCE_ACCURACY_VALUE',
'Maximum model space distance between geometric entities at asserted c
onnectivities');
#892=(
GEOMETRIC_REPRESENTATION_CONTEXT(3)
GLOBAL_UNCERTAINTY_ASSIGNED_CONTEXT((#890))
GLOBAL_UNIT_ASSIGNED_CONTEXT((#894,#896,#897))
REPRESENTATION_CONTEXT('','3D')
);
#893=(
GEOMETRIC_REPRESENTATION_CONTEXT(3)
GLOBAL_UNCERTAINTY_ASSIGNED_CONTEXT((#891))
GLOBAL_UNIT_ASSIGNED_CONTEXT((#894,#896,#897))
REPRESENTATION_CONTEXT('','3D')
);
#894=(
LENGTH_UNIT()
NAMED_UNIT(*)
SI_UNIT(.MILLI.,.METRE.)
);
#895=(
LENGTH_UNIT()
NAMED_UNIT(*)
SI_UNIT($,.METRE.)
);
#896=(
NAMED_UNIT(*)
PLANE_ANGLE_UNIT()
SI_UNIT($,.RADIAN.)
);
#897=(
NAMED_UNIT(*)
SI_UNIT($,.STERADIAN.)
SOLID_ANGLE_UNIT()
);
#898=SHAPE_DEFINITION_REPRESENTATION(#899,#900);
#899=PRODUCT_DEFINITION_SHAPE('',$,#902);
#900=SHAPE_REPRESENTATION('',(#514),#892);
#901=PRODUCT_DEFINITION_CONTEXT('part definition',#906,'design');
#902=PRODUCT_DEFINITION('Traxxas_v1.0','Traxxas_v1.0 v14',#903,#901);
#903=PRODUCT_DEFINITION_FORMATION('',$,#908);
#904=PRODUCT_RELATED_PRODUCT_CATEGORY('Traxxas_v1.0 v14',
'Traxxas_v1.0 v14',(#908));
#905=APPLICATION_PROTOCOL_DEFINITION('international standard',
'automotive_design',2009,#906);
#906=APPLICATION_CONTEXT(
'Core Data for Automotive Mechanical Design Process');
#907=PRODUCT_CONTEXT('part definition',#906,'mechanical');
#908=PRODUCT('Traxxas_v1.0','Traxxas_v1.0 v14',$,(#907));
#909=PRESENTATION_STYLE_ASSIGNMENT((#910));
#910=SURFACE_STYLE_USAGE(.BOTH.,#911);
#911=SURFACE_SIDE_STYLE('',(#912));
#912=SURFACE_STYLE_FILL_AREA(#913);
#913=FILL_AREA_STYLE('Steel - Satin',(#914));
#914=FILL_AREA_STYLE_COLOUR('Steel - Satin',#915);
#915=COLOUR_RGB('Steel - Satin',0.627450980392157,0.627450980392157,0.627450980392157);
ENDSEC;
END-ISO-10303-21;
